<svg preserveAspectRatio="none" overflow="visible" style="display: block;" width="16" height="16" viewBox="0 0 16 16" fill="none" xmlns="http://www.w3.org/2000/svg">
<g id="Icon">
<path id="Vector" d="M3.57504 13.9V10.95M3.57504 5.04998V2.09998M2.10004 3.57498H5.05004M2.10004 12.425H5.05004M8.59004 2.68998L7.56686 5.35021C7.40048 5.78281 7.31729 5.99912 7.18791 6.18106C7.07327 6.34232 6.93238 6.4832 6.77112 6.59786C6.58918 6.72724 6.37287 6.81043 5.94027 6.9768L3.28004 7.99998L5.94027 9.02316C6.37287 9.18954 6.58918 9.27273 6.77112 9.40211C6.93238 9.51675 7.07327 9.65764 7.18791 9.81889C7.31729 10.0008 7.40048 10.2171 7.56686 10.6497L8.59004 13.31L9.61322 10.6497C9.7796 10.2171 9.86279 10.0008 9.99218 9.81889C10.1068 9.65764 10.2477 9.51675 10.409 9.40211C10.5909 9.27273 10.8072 9.18954 11.2398 9.02316L13.9 7.99998L11.2398 6.9768C10.8072 6.81043 10.5909 6.72723 10.409 6.59786C10.2477 6.4832 10.1068 6.34232 9.99218 6.18106C9.86279 5.99912 9.7796 5.78281 9.61322 5.35021L8.59004 2.68998Z" stroke="#334155" stroke-width="1.3" stroke-linecap="round" stroke-linejoin="round"/>
</g>
</svg>
